<?xml version="1.0" standalone="no"?>
<!DOCTYPE svg PUBLIC "-//W3C//DTD SVG 20010904//EN"
 "http://www.w3.org/TR/2001/REC-SVG-20010904/DTD/svg10.dtd">
<svg version="1.0" xmlns="http://www.w3.org/2000/svg"
 width="300.000000pt" height="300.000000pt" viewBox="0 0 300.000000 300.000000"
 preserveAspectRatio="xMidYMid meet">
<metadata>
Created by potrace 1.10, written by Peter Selinger 2001-2011
</metadata>
<g transform="translate(0.000000,300.000000) scale(0.100000,-0.100000)"
fill="#0a0a0a" stroke="none">
<path d="M1380 2990 c-597 -46 -1109 -451 -1300 -1029 -52 -158 -72 -284 -72
-461 0 -177 20 -303 73 -463 152 -460 496 -804 958 -957 158 -52 284 -72 461
-72 177 0 303 20 463 73 460 152 804 496 957 958 52 158 72 284 72 461 0 177
-20 303 -73 463 -218 660 -847 1079 -1539 1027z m380 -140 c485 -93 888 -446
1045 -915 67 -199 87 -461 52 -662 -107 -600 -580 -1053 -1184 -1134 -110 -15
-342 -7 -443 15 -274 59 -498 182 -696 380 -198 197 -318 417 -379 691 -24
108 -30 370 -11 485 74 453 348 825 753 1024 270 133 567 173 863 116z"/>
<path d="M1415 2379 c-33 -5 -88 -23 -122 -39 -54 -27 -69 -30 -113 -24 -53 7
-127 -13 -150 -41 -10 -12 -18 -11 -52 7 -23 12 -64 24 -93 26 -47 4 -55 1
-88 -28 -51 -44 -69 -77 -127 -230 -57 -153 -87 -201 -136 -225 l-34 -16 17
-31 c11 -19 36 -39 67 -53 36 -16 45 -23 33 -28 -26 -10 -57 -68 -57 -107 0
-20 9 -54 20 -75 19 -38 19 -42 4 -80 -82 -203 -68 -367 46 -510 148 -186 486
-305 867 -305 457 0 814 150 933 393 56 114 54 260 -5 404 -23 57 -23 58 -4
95 29 58 25 120 -11 161 -30 35 -30 47 1 47 22 0 89 65 89 85 0 8 -6 15 -14
15 -25 0 -76 51 -100 99 -13 25 -38 87 -55 137 -83 233 -156 291 -291 233
l-49 -21 -32 23 c-36 25 -119 37 -158 22 -19 -7 -35 -3 -75 18 -88 47 -202 65
-311 48z m194 -100 c28 -6 61 -19 73 -29 l23 -19 -40 -1 c-42 0 -117 -30 -147
-57 -17 -15 -20 -15 -41 5 -28 27 -69 42 -132 51 l-50 7 32 17 c67 36 187 47
282 26z m-644 -94 l33 -35 58 35 c48 29 67 35 116 35 92 0 188 -46 290 -138
l37 -34 68 56 c96 77 182 116 257 116 64 0 129 -24 161 -60 18 -20 18 -20 41
14 65 95 127 42 226 -191 27 -65 52 -124 55 -132 16 -36 -87 42 -163 125 -107
117 -161 148 -247 142 -56 -4 -167 -42 -156 -53 3 -2 27 2 54 10 26 8 64 15
84 15 44 0 108 -29 139 -62 20 -22 135 -228 127 -228 -2 0 -32 7 -66 16 -35 9
-80 14 -100 11 l-38 -5 1 48 c0 26 -5 57 -11 69 -14 26 -4 27 45 6 l36 -15 -6
28 c-13 52 -39 77 -87 80 -38 2 -57 -5 -144 -57 -127 -76 -146 -81 -180 -47
-27 27 -31 24 -37 -24 -3 -23 -5 -22 -26 17 -12 23 -22 50 -22 60 0 25 -15 5
-29 -39 -7 -20 -19 -42 -27 -48 -12 -11 -14 -7 -14 25 l0 38 -26 -28 c-33 -35
-63 -30 -158 29 -103 64 -131 76 -170 76 -39 0 -62 -19 -82 -67 -19 -45 -18
-60 4 -40 9 8 30 19 46 23 27 6 28 6 16 -16 -7 -13 -10 -43 -8 -70 l5 -48 -36
5 c-20 3 -65 -2 -101 -10 -36 -9 -66 -15 -67 -14 -1 2 19 45 44 97 88 178 173
221 332 167 22 -8 41 -13 41 -11 0 14 -114 57 -162 62 -93 8 -128 -11 -264
-147 -66 -65 -129 -120 -140 -123 -19 -5 -16 6 31 118 63 147 96 205 131 233
37 29 51 26 89 -14z m206 -237 c22 -6 40 -16 40 -22 1 -6 2 -20 3 -31 1 -23
41 -34 59 -16 13 13 37 15 37 3 0 -5 -10 -14 -22 -20 -20 -9 -17 -11 24 -11
45 -1 98 -17 98 -30 0 -4 -13 -12 -29 -18 -16 -6 -37 -23 -47 -38 l-18 -28 44
-36 c86 -69 124 -111 112 -123 -8 -8 -18 -8 -34 -1 -16 7 -28 7 -39 0 -12 -7
-27 -3 -61 17 -52 30 -64 62 -52 138 l7 43 -28 -25 c-15 -14 -35 -41 -45 -61
l-19 -36 -100 5 c-96 4 -159 -4 -225 -30 l-28 -11 4 -83 c6 -113 50 -204 148
-303 39 -39 75 -71 80 -71 4 0 13 24 20 52 29 139 136 230 310 266 141 28 298
-11 394 -99 60 -55 85 -98 101 -179 l12 -55 79 80 c91 92 136 173 154 275 22
133 -7 154 -216 154 l-131 1 -26 47 c-15 26 -35 51 -44 57 -17 8 -18 4 -15
-62 l3 -72 -42 -24 c-49 -27 -149 -39 -149 -17 0 16 70 86 117 119 18 12 33
29 33 39 0 20 -55 68 -78 68 -15 0 -15 1 0 16 10 10 42 19 80 23 53 6 59 8 35
14 -24 7 -27 10 -16 23 11 14 13 14 21 0 17 -30 69 -16 74 19 0 6 2 15 2 22 2
12 80 38 88 30 3 -3 7 -20 11 -40 4 -30 1 -40 -21 -62 -22 -22 -34 -26 -59
-22 -26 5 -23 2 18 -18 41 -19 45 -24 25 -24 -37 -2 -70 -12 -70 -22 0 -5 22
-9 49 -9 81 0 274 -28 347 -51 49 -15 79 -32 106 -59 35 -34 38 -42 38 -91 0
-58 -20 -112 -68 -181 -42 -62 -44 -68 -32 -68 6 0 31 21 55 46 l45 46 0 -86
c0 -130 -38 -229 -127 -327 -65 -72 -70 -70 -65 31 3 67 0 100 -14 141 l-18
54 -7 -68 c-11 -101 -60 -197 -149 -291 -40 -42 -74 -75 -76 -73 -1 1 10 29
26 62 15 33 31 80 34 105 l6 45 -24 -49 c-144 -291 -675 -299 -822 -13 l-26
52 6 -49 c3 -27 19 -73 35 -102 37 -69 16 -59 -66 31 -73 79 -120 171 -137
268 l-13 72 -18 -60 c-13 -45 -16 -77 -12 -137 l6 -78 -30 22 c-46 34 -115
130 -140 196 -15 39 -23 88 -27 157 l-5 100 52 -49 c29 -26 55 -46 58 -43 3 3
-9 26 -26 51 -48 69 -81 146 -81 189 0 76 41 120 147 156 65 22 261 51 344 51
27 0 49 4 49 9 0 10 -33 20 -70 22 -22 0 -20 3 15 19 22 10 33 19 24 19 -9 1
-28 10 -43 22 -21 17 -26 29 -26 65 0 48 3 50 61 32z m619 -337 c11 -35 20
-83 20 -107 l0 -44 -41 27 c-36 24 -40 30 -35 56 3 16 6 61 6 100 0 65 1 69
15 51 8 -10 24 -48 35 -83z m-553 -123 c-17 -15 -35 -28 -39 -28 -21 0 2 131
34 198 l21 47 9 -95 8 -95 -33 -27z m-67 37 c0 -36 -2 -65 -4 -65 -7 0 -86
112 -86 122 0 4 20 8 45 8 l45 0 0 -65z m754 53 c-26 -45 -77 -107 -85 -102
-5 3 -9 30 -9 60 l0 54 51 0 c37 0 48 -3 43 -12z m-887 -100 c-1 -57 2 -121 6
-143 l7 -40 -21 25 c-32 37 -78 140 -81 183 -3 40 0 43 88 76 1 1 1 -45 1
-101z m302 86 l23 -17 -32 -14 c-39 -16 -45 -13 -36 22 7 29 14 31 45 9z m371
-14 c0 -34 0 -34 -35 -18 -31 14 -32 22 -2 36 33 16 37 15 37 -18z m305 10
l47 -20 -6 -43 c-8 -51 -58 -156 -86 -182 -20 -18 -20 -18 -13 16 5 19 8 82 8
142 0 59 1 107 2 107 1 0 23 -9 48 -20z m-898 -162 c-23 -21 -46 -38 -51 -38
-8 0 -2 79 10 143 l6 27 38 -47 39 -48 -42 -37z m819 42 c6 -44 7 -80 4 -80
-11 0 -90 64 -90 73 0 11 61 87 70 87 4 0 11 -36 16 -80z"/>
</g>
</svg>
